<svg width="20" height="20" viewBox="0 0 20 20" fill="none" xmlns="http://www.w3.org/2000/svg">
<path d="M10 19C14.9706 19 19 14.9706 19 10C19 5.02944 14.9706 1 10 1C5.02944 1 1 5.02944 1 10C1 14.9706 5.02944 19 10 19Z" stroke="#D1D7DC" stroke-width="2" stroke-miterlimit="10" stroke-linecap="round" stroke-linejoin="round"/>
<path d="M8.66477 12.9474V12.7784C8.66809 12.1984 8.71946 11.736 8.81889 11.3913C8.92164 11.0466 9.07079 10.7682 9.26634 10.5561C9.46188 10.344 9.69721 10.1518 9.9723 9.9794C10.1778 9.84683 10.3617 9.70928 10.5241 9.56676C10.6866 9.42424 10.8158 9.26681 10.9119 9.09446C11.008 8.9188 11.0561 8.72325 11.0561 8.50781C11.0561 8.27912 11.0014 8.0786 10.892 7.90625C10.7827 7.7339 10.6352 7.60133 10.4496 7.50852C10.2673 7.41572 10.0651 7.36932 9.84304 7.36932C9.6276 7.36932 9.42377 7.41738 9.23153 7.51349C9.0393 7.6063 8.88187 7.7455 8.75923 7.93111C8.6366 8.1134 8.57031 8.34044 8.56037 8.61222H6.53196C6.54853 7.94934 6.70762 7.40246 7.00923 6.97159C7.31084 6.53741 7.71023 6.21425 8.20739 6.00213C8.70455 5.78669 9.25308 5.67898 9.85298 5.67898C10.5125 5.67898 11.0959 5.78835 11.603 6.0071C12.1101 6.22254 12.5078 6.53575 12.7962 6.94673C13.0845 7.35772 13.2287 7.85322 13.2287 8.43324C13.2287 8.82102 13.1641 9.16572 13.0348 9.46733C12.9089 9.76562 12.7315 10.0308 12.5028 10.2628C12.2741 10.4915 12.004 10.6986 11.6925 10.8842C11.4306 11.04 11.2152 11.2024 11.0462 11.3714C10.8804 11.5405 10.7562 11.736 10.6733 11.9581C10.5938 12.1802 10.5523 12.4536 10.549 12.7784V12.9474H8.66477ZM9.64915 16.1293C9.31771 16.1293 9.03433 16.0133 8.79901 15.7812C8.567 15.5459 8.45265 15.2642 8.45597 14.9361C8.45265 14.6113 8.567 14.3329 8.79901 14.1009C9.03433 13.8688 9.31771 13.7528 9.64915 13.7528C9.96402 13.7528 10.2408 13.8688 10.4794 14.1009C10.718 14.3329 10.839 14.6113 10.8423 14.9361C10.839 15.1548 10.781 15.3554 10.6683 15.5376C10.5589 15.7166 10.4148 15.8608 10.2358 15.9702C10.0568 16.0762 9.86127 16.1293 9.64915 16.1293Z" fill="#D1D7DC"/>
</svg>
